<svg id="digaMa" xmlns="http://www.w3.org/2000/svg" viewBox="0 0 1699.71 744.7"><title>logo_black_on_white</title><path d="M304.72,627H368V1242.2H304.72v-30.3q-10.11,30.3-50.48,30.3H217.53q-72.51,0-72.5-72.53V868.51Q145,796,217.53,796h36.71q40.37,0,50.48,30.3V627ZM236.8,1188h36.71q16.52,0,23.86-7.35t7.34-25.71V883.21q0-18.36-7.34-25.71t-23.86-7.35H236.8q-18.37,0-23.4,5t-5,23.41v281q0,18.38,5,23.41T236.8,1188Z" transform="translate(-145.02 -626.96)"/><path d="M449.12,701.41V627h67v74.37h-67Zm65.16,540.79H451V796.9h63.33v445.3Z" transform="translate(-145.02 -626.96)"/><path d="M751.91,796.9h63.33v502.23q0,72.52-72.5,72.53H606v-54.17H723.45q17.42,0,22.94-5.51t5.51-23V1211.9q-10.11,30.3-50.48,30.3H664.72q-72.51,0-72.5-72.53V869.43q0-72.52,72.5-72.53h36.71q40.37,0,50.48,30.3V796.9ZM684,1188H720.7q16.52,0,23.86-7.35t7.34-25.71V884.12q0-18.36-7.34-25.71t-23.86-7.34H684q-18.37,0-23.4,5.51t-5,23v280q0,18.38,5,23.41T684,1188Z" transform="translate(-145.02 -626.96)"/><path d="M1053.25,796.9h63.33v445.3h-63.33v-30.3q-10.11,30.3-50.48,30.3H966.06q-72.51,0-72.5-72.53V869.43q0-72.52,72.5-72.53h36.71q40.37,0,50.48,30.3V796.9ZM985.33,1188H1022q16.52,0,23.86-7.35t7.34-25.71V884.12q0-18.36-7.34-25.71T1022,851.07H985.33q-18.37,0-23.4,5.51t-5,23v280q0,18.38,5,23.41T985.33,1188Z" transform="translate(-145.02 -626.96)"/><path d="M1271.44,1371.57h-63.79V796.9h63.17l100.53,315.95L1472.78,796.9h63.17v574.67h-63.79V1010l-67.53,204.74H1339l-67.53-209v365.88Z" transform="translate(-145.02 -626.96)"/><path d="M1781.4,796.9h63.33v445.3H1781.4v-30.3q-10.11,30.3-50.48,30.3h-36.71q-72.51,0-72.5-72.53V869.43q0-72.52,72.5-72.53h36.71q40.37,0,50.48,30.3V796.9ZM1713.49,1188h36.71q16.52,0,23.86-7.35t7.34-25.71V884.12q0-18.36-7.34-25.71t-23.86-7.34h-36.71q-18.37,0-23.4,5.51t-5,23v280q0,18.38,5,23.41T1713.49,1188Z" transform="translate(-145.02 -626.96)"/></svg>