<svg width="100" height="100" viewBox="0 0 34 40" fill="none" xmlns="http://www.w3.org/2000/svg">
<path d="M11.1549 22.48L8.21588 24.52C7.73929 24.84 7.50099 25.2 7.34212 25.68L4.80028 32.76C4.72085 33 4.6017 33.16 4.48255 33.24C4.24425 33.4 3.68822 33.44 2.8939 34.04C2.05985 34.68 1.34496 35.96 1.02723 36.64C0.709499 37.36 0.510918 38.4 0.510918 39.28C0.510918 39.84 0.709499 40 0.987513 40C1.22581 40 1.38468 39.8 1.66269 39.56C2.21872 39.04 3.05276 38.24 4.28397 37.28C5.51517 36.32 6.78609 35.32 7.69957 33.24L10.2414 27.56C10.44 27.08 10.7577 26.8 11.3138 26.68L18.701 24.96L18.3435 30.56C18.3038 31.24 18.701 31.76 19.3365 31.88L26.406 33.12C27.0414 34.8 29.2655 36.32 31.8471 36.32C32.562 36.32 33.2769 36.08 33.2769 35.68C33.2769 35.28 32.8003 35 32.1251 34.52C30.6159 33.44 29.623 31.36 27.1208 30.76L21.6797 29.44L22.7123 25.48H23.3478C26.8825 25.48 29.623 23.88 29.0272 20C29.901 19.28 32.6811 16.52 32.6811 12.76C32.6811 8.48 28.2329 5.68 28.2329 3.64C28.2329 2.84 28.7492 2.48 29.623 2.36L31.3705 2.12C31.6485 2.08 31.7677 1.96 31.7677 1.76C31.7677 1.52 31.6088 1.4 31.3705 1.36L29.901 1.04C29.5833 0.960002 29.345 0.880002 29.0669 0.640002C28.7492 0.360002 28.3521 -5.96046e-07 27.4386 -5.96046e-07C26.2074 -5.96046e-07 25.2542 0.879999 25.2542 2.4C25.2542 6 29.6627 9 29.6627 11.96C29.6627 13.64 28.5903 14.6 26.684 14.6C24.6187 14.6 21.6797 11.52 17.1123 11.52C15.0868 11.52 13.5379 11.92 12.2272 12.6C11.7506 12.4 11.1152 12.28 10.4003 12.28C6.90524 12.28 1.46411 14.72 1.46411 20.6C1.46411 21.76 1.82156 22.8 2.81446 22.8C3.29106 22.8 3.84709 22.52 4.3634 22.16C4.6017 22.52 5.11801 23.08 6.23007 23.08C7.779 23.08 9.08964 21.88 9.52652 21.2L11.1549 22.48Z" fill="black"/>
<path d="M14.0934 13.6347L5.46943 17.9799L6.08861 20.3031L12.5509 17.0271L10.772 19.6835L12.809 21.2767L17.3172 18.5143C16.7945 19.2671 15.6869 21.0079 17.204 22.4339C19.5473 24.6347 24.3629 20.8423 26.722 18.8579L25.546 17.2271C23.0562 19.2235 19.7121 21.1811 19.0619 20.5975C18.4158 20.0179 20.2792 17.9127 21.4807 16.5555L21.4997 16.5343L19.4714 14.5007L14.242 17.8619L15.8946 15.4607L14.0934 13.6347Z" fill="#FFE033"/>
</svg>
