<svg width="100" height="100" viewBox="0 0 80 65" fill="none" xmlns="http://www.w3.org/2000/svg">
<path fill-rule="evenodd" clip-rule="evenodd" d="M5.624 48.2425L2.01617 45.2803L3.74428 43.1542L6.26085 45.2205C6.61718 45.513 7.14318 45.4598 7.43423 45.1017C7.73438 44.7324 7.68134 44.2038 7.32501 43.9112L4.80843 41.845L6.28187 40.0322L9.88971 42.9944C10.246 43.287 10.772 43.2338 11.0631 42.8757C11.3541 42.5176 11.3102 41.9778 10.9539 41.6852L6.70017 38.1927C6.34384 37.9002 5.80875 37.9646 5.5177 38.3227L0.187848 44.88C-0.103202 45.2381 -0.0501618 45.7667 0.306168 46.0593L4.55985 49.5517C4.91618 49.8443 5.44218 49.7911 5.73323 49.433C6.03337 49.0637 5.98033 48.5351 5.624 48.2425ZM22.3605 59.2826L18.1365 57.306L19.2906 54.8183L22.237 56.197C22.6542 56.3922 23.1511 56.2104 23.3455 55.7914C23.5459 55.3593 23.3649 54.8603 22.9477 54.6651L20.0013 53.2863L20.9854 51.1652L25.2094 53.1418C25.6266 53.337 26.1235 53.1552 26.3179 52.7362C26.5123 52.3172 26.3373 51.8051 25.9201 51.6098L20.9399 49.2794C20.5227 49.0842 20.0198 49.2791 19.8254 49.6981L16.2658 57.3708C16.0714 57.7898 16.2524 58.2889 16.6696 58.4841L21.6498 60.8145C22.067 61.0098 22.5639 60.8279 22.7583 60.409C22.9587 59.9769 22.7777 59.4778 22.3605 59.2826ZM45.2882 58.0467C45.2861 59.4912 44.4501 60.7467 43.2267 61.3371L44.9213 63.0875C45.2372 63.4346 45.2221 63.9546 44.8908 64.2864C44.7324 64.445 44.5165 64.5169 44.3152 64.5166C44.085 64.5163 43.8694 64.4293 43.7115 64.2557L41.2701 61.7098L39.6592 61.7075L39.6563 63.672C39.6557 64.1342 39.2812 64.5092 38.8209 64.5086C38.3607 64.5079 37.9873 64.1318 37.9879 63.6695L38.0003 55.2048C38.0009 54.7426 38.3754 54.3676 38.8357 54.3682L41.6403 54.3723C43.6539 54.3753 45.2912 56.0244 45.2882 58.0467ZM41.6379 56.048L39.6674 56.0451L39.6616 60.0319L41.6321 60.0348C42.7252 60.0364 43.6038 59.1421 43.6054 58.0443C43.607 56.9464 42.731 56.0496 41.6379 56.048ZM53.6799 62.8197C51.0639 63.7945 48.1613 62.4571 47.1908 59.8298C46.2252 57.216 47.5519 54.2873 50.1679 53.3126C52.7705 52.3429 55.6915 53.6888 56.657 56.3026C57.6276 58.9299 56.2825 61.85 53.6799 62.8197ZM50.7482 54.8836C48.9952 55.5368 48.1096 57.4999 48.755 59.2469C49.4054 61.0075 51.3466 61.9019 53.0996 61.2488C54.8391 60.6006 55.7432 58.646 55.0928 56.8854C54.4474 55.1384 52.4878 54.2354 50.7482 54.8836ZM67.2325 56.1901C67.4759 56.3016 67.7454 56.2825 67.9714 56.1555C68.0467 56.1132 68.1275 56.0512 68.1817 55.9711C68.4142 55.708 68.4605 55.3178 68.292 55.0153L64.1763 47.6284C63.9446 47.2124 63.4356 47.068 63.034 47.2938C62.6323 47.5195 62.4886 48.0306 62.7204 48.4466L65.6561 53.7158L57.9741 50.518C57.6454 50.3717 57.2628 50.4542 57.0248 50.737C56.7923 51.0001 56.746 51.3902 56.9216 51.7054L61.0372 59.0923C61.262 59.4957 61.7709 59.64 62.1726 59.4143C62.5742 59.1886 62.718 58.6774 62.4932 58.2741L59.5504 52.9923L67.2325 56.1901ZM72.3107 53.2812C71.957 53.577 71.4304 53.5288 71.1358 53.1736L65.742 46.6692C65.4475 46.314 65.4955 45.7851 65.8492 45.4893C66.2028 45.1935 66.7405 45.2324 67.0351 45.5876L72.4289 52.092C72.7234 52.4472 72.6643 52.9854 72.3107 53.2812ZM71.612 47.9726C73.709 49.8212 76.9065 49.6223 78.7472 47.5162C79.7054 46.4197 80.1501 44.9474 79.9548 43.5067C79.8838 43.0405 79.4757 42.7191 79.021 42.7796C78.5555 42.8305 78.2369 43.2608 78.297 43.7174C78.4214 44.6919 78.1276 45.6631 77.4825 46.4013C76.2585 47.8018 74.1178 47.952 72.7126 46.7132C71.3181 45.484 71.1888 43.3327 72.4128 41.9323C73.0579 41.1941 73.9786 40.7756 74.9569 40.773C75.4156 40.7738 75.799 40.4007 75.7889 39.9305C75.7896 39.4698 75.4195 39.1051 74.95 39.0948C73.5023 39.0872 72.1063 39.7209 71.148 40.8174C69.3074 42.9235 69.5257 46.1335 71.612 47.9726ZM35.3378 54.3348L29.2736 52.7885C28.8275 52.6748 28.3731 52.9464 28.2598 53.3944C28.1465 53.8424 28.417 54.2989 28.8631 54.4126L31.0796 54.9778L29.2108 62.3702C29.0975 62.8182 29.368 63.2747 29.8141 63.3884C30.2741 63.5057 30.7286 63.2341 30.8418 62.7861L32.7106 55.3937L34.9272 55.9589C35.3733 56.0727 35.8278 55.8011 35.941 55.353C36.0543 54.905 35.7839 54.4486 35.3378 54.3348ZM17.2776 47.4352C17.7075 47.286 18.1846 47.512 18.3447 47.9522C18.4933 48.384 18.2683 48.8632 17.8299 49.024L13.2619 50.6398L10.9233 53.8435C10.6512 54.2163 10.1285 54.2971 9.74573 54.0153C9.37455 53.742 9.29406 53.217 9.56619 52.8442L11.9048 49.6406L12.0649 44.7793C12.0858 44.311 12.4731 43.9514 12.9278 43.9638C13.394 43.9847 13.7521 44.3737 13.7398 44.8303L13.6065 48.7263L17.2776 47.4352Z" fill="black"/>
<path d="M52.0589 34.6136C57.5002 35.188 62.375 31.2234 62.9469 25.7586C63.5188 20.2937 59.5713 15.398 54.1299 14.8236C48.6886 14.2492 43.8139 18.2137 43.2419 23.6786C42.67 29.1434 46.6175 34.0392 52.0589 34.6136Z" fill="#E52B50"/>
<path fill-rule="evenodd" clip-rule="evenodd" d="M50.7148 18.5169C45.053 18.5169 40.4632 23.1265 40.4632 28.8128C40.4632 34.499 45.053 39.1086 50.7148 39.1086C56.3766 39.1086 60.9664 34.499 60.9664 28.8128C60.9664 23.1265 56.3766 18.5169 50.7148 18.5169ZM42.2712 28.8128C42.2712 24.1294 46.0515 20.3328 50.7148 20.3328C55.378 20.3328 59.1583 24.1294 59.1583 28.8128C59.1583 33.4961 55.378 37.2927 50.7148 37.2927C46.0515 37.2927 42.2712 33.4961 42.2712 28.8128Z" fill="black"/>
<path fill-rule="evenodd" clip-rule="evenodd" d="M27.0891 0.521092C26.8762 0.0674968 26.3375 -0.126918 25.8859 0.0868542C25.4342 0.300627 25.2407 0.841636 25.4535 1.29523L29.7311 10.4108C25.8135 12.0257 22.2018 14.6277 18.9088 18.2715L12.2931 10.4757C11.9693 10.0941 11.3987 10.0484 11.0187 10.3737C10.6387 10.6989 10.5932 11.272 10.917 11.6536L17.7112 19.6597C15.3483 22.5265 13.1584 25.9597 11.1466 29.9809C11.1415 29.991 11.1367 30.0012 11.132 30.0114C10.5816 31.2218 10.9303 32.6316 11.9285 33.466C21.2672 43.0701 30.6805 46.8835 40.1111 46.9191C49.5514 46.9548 59.4264 43.0658 68.7011 33.428L68.7082 33.4205C69.5177 32.5598 69.7365 31.2882 69.2418 30.2038C69.2386 30.1968 69.2353 30.1899 69.232 30.1829L69.2277 30.1743C67.1922 26.1075 64.9859 22.6326 62.6094 19.7311L69.4641 11.6536C69.788 11.272 69.7425 10.6989 69.3625 10.3737C68.9825 10.0484 68.4119 10.0941 68.088 10.4757L61.416 18.338C58.1327 14.6774 54.5394 12.0556 50.6375 10.427L54.9227 1.29523C55.1356 0.841636 54.942 0.300627 54.4903 0.0868542C54.0387 -0.126918 53.5 0.0674968 53.2872 0.521092L48.9389 9.78722C46.1763 8.85642 43.2657 8.39856 40.2078 8.39855C37.1391 8.39853 34.2127 8.85214 31.4328 9.77761L27.0891 0.521092ZM13.1037 32.0855C12.7041 31.7652 12.5741 31.2275 12.7709 30.7789C19.9432 16.4528 29.1854 10.2144 40.2078 10.2144C51.2218 10.2145 60.3827 16.5552 67.6037 30.9729C67.7799 31.3725 67.7007 31.8447 67.3968 32.1703C58.422 41.4948 49.0047 45.1368 40.1179 45.1033C31.2322 45.0697 22.2527 41.4992 13.1871 32.1613C13.1609 32.1343 13.133 32.109 13.1037 32.0855Z" fill="black"/>
</svg>
