<svg xmlns="http://www.w3.org/2000/svg" width="125" height="50">
    <path d="M61.191 23.609h7.827v2.817H55.15l8.546-10.362h-6.731v-2.817h12.709l-8.483 10.362zM83.36 23.421c-.563 1.001-1.377 1.878-2.223 2.41-1.064.688-2.473 1.002-3.883 1.002-1.752 0-3.192-.439-4.445-1.691-1.251-1.252-1.939-3.068-1.939-5.04 0-2.035.719-4.007 2.098-5.416 1.095-1.096 2.535-1.785 4.413-1.785 2.097 0 3.443.908 4.226 1.722 1.691 1.753 1.848 4.195 1.848 5.572v.376h-9.453c.062.938.469 2.003 1.125 2.661.721.72 1.598.845 2.349.845.846 0 1.472-.188 2.099-.657.531-.407.938-.939 1.221-1.44l2.564 1.441zm-3.037-5.353a3.181 3.181 0 00-.939-1.784c-.406-.375-1.063-.751-2.065-.751-1.064 0-1.753.438-2.16.845-.438.407-.782 1.033-.938 1.69h6.102zM89.72 14.781c1.252-1.628 2.942-1.879 3.912-1.879 3.476 0 6.418 2.63 6.418 6.918 0 3.632-2.316 7.013-6.386 7.013-.939 0-2.599-.22-3.944-1.785v1.377h-3.068V3.605h3.068v11.176zm-.188 5.135c0 2.755 1.783 4.163 3.725 4.163 2.223 0 3.662-1.91 3.662-4.195 0-2.348-1.439-4.226-3.662-4.226-1.942 0-3.725 1.377-3.725 4.258zM103.249 13.247h3.066v1.19c.346-.407.846-.846 1.283-1.096.596-.344 1.191-.439 1.879-.439.752 0 1.566.125 2.411.626l-1.253 2.786c-.688-.438-1.252-.47-1.564-.47-.658 0-1.314.094-1.91.721-.846.907-.846 2.16-.846 3.036v6.824h-3.066V13.247zM122.629 13.247h3.067v13.179h-3.067v-1.377c-1.347 1.565-3.005 1.785-3.944 1.785-4.07 0-6.387-3.381-6.387-7.013 0-4.288 2.943-6.918 6.418-6.918.97 0 2.66.25 3.913 1.879v-1.535zm-7.2 6.637c0 2.285 1.439 4.195 3.663 4.195 1.94 0 3.725-1.408 3.725-4.163 0-2.881-1.784-4.258-3.725-4.258-2.224 0-3.663 1.878-3.663 4.226z"/>
    <path d="M39.564 33.882a7.19 7.19 0 007.188-7.192V9.284l-19.54 24.598h12.352zM32.539 8.819H7.833L14.795 0H7.192A7.19 7.19 0 000 7.188V49.702L32.539 8.819z"/>
</svg>
